ply
format ascii 1.0
comment VCGLIB generated
element vertex 156
property float x
property float y
property float z
element face 268
property list uchar int vertex_indices
end_header
-0.827276 0.006765 0.827276 
0.827276 0.006765 0.827276 
-0.5 5.97292 0.5 
0.5 5.97292 0.5 
-0.5 5.97292 -0.5 
0.5 5.97292 -0.5 
-0.827276 0.006765 -0.827276 
0.827276 0.006765 -0.827276 
-0.101023 6.798627 0.101023 
0.101023 6.798627 0.101023 
0.101023 6.798627 -0.101023 
-0.101023 6.798627 -0.101023 
-0.455285 5.085595 0.455285 
0.455285 5.085595 0.455285 
0.455285 5.085595 -0.455285 
-0.455285 5.085595 -0.455285 
-0.582402 3.322195 0.582402 
0.582402 3.322195 0.582402 
0.582402 3.322195 -0.582402 
-0.582402 3.322195 -0.582402 
-0.700107 1.755658 0.700107 
0.700107 1.755658 0.700107 
0.700107 1.755658 -0.700107 
-0.700107 1.755658 -0.700107 
-0.551099 5.144987 -0.551099 
0.551099 5.144987 -0.551099 
0.551099 5.144986 0.551099 
-0.551099 5.144986 0.551099 
0.562191 5.028809 -0.562191 
0.562191 5.028808 0.562191 
-0.562191 5.028808 0.562191 
-0.562191 5.028809 -0.562191 
-0.664604 3.372301 0.664604 
0.664604 3.372301 0.664604 
0.664604 3.372301 -0.664604 
-0.664604 3.372301 -0.664604 
0.675192 3.246985 -0.675192 
0.675192 3.246985 0.675192 
-0.675192 3.246985 0.675192 
-0.675192 3.246985 -0.675192 
-0.764401 1.837278 0.764401 
0.764401 1.837278 0.764401 
0.764401 1.837277 -0.764401 
-0.764401 1.837277 -0.764401 
-0.773485 1.69519 0.773485 
0.773485 1.69519 0.773485 
0.773485 1.69519 -0.773485 
-0.773485 1.69519 -0.773485 
0.591799 4.549914 -0.591799 
0.591799 4.549914 0.591799 
-0.591799 4.549914 0.591799 
-0.591799 4.549914 -0.591799 
-0.612607 4.213344 0.612607 
0.612607 4.213344 0.612607 
0.612607 4.213344 -0.612607 
-0.612607 4.213344 -0.612607 
-0.716691 4.265958 0.716691 
0.716691 4.265958 0.716691 
0.692348 4.4973 0.692348 
-0.692348 4.4973 0.692348 
0.716691 4.265958 -0.716691 
0.692348 4.4973 -0.692348 
-0.692348 4.4973 -0.692348 
-0.716691 4.265958 -0.716691 
-0.818729 0.987495 0.818729 
0.818729 0.987495 0.818729 
0.818729 0.987495 -0.818729 
-0.818729 0.987495 -0.818729 
-0.954823 0.006765 0.954823 
0.954823 0.006765 0.954823 
0.944959 0.877573 0.944959 
-0.944959 0.877573 0.944959 
0.954823 0.006765 -0.954823 
0.944959 0.877573 -0.944959 
-0.944959 0.877573 -0.944959 
-0.954823 0.006765 -0.954823 
-0.5 0.049054 -0.976472 
0.5 0.049054 -0.976472 
-0.5 0.712511 -0.976472 
0.5 0.712511 -0.976472 
-0.5 0.712511 -1.976472 
0.5 0.712511 -1.976472 
-0.5 0.049054 -1.976472 
0.5 0.049054 -1.976472 
-0.966274 0.039451 -0.957963 
-0.490965 0.039451 -0.957963 
-0.966274 1.028483 -0.957963 
-0.490965 1.028483 -0.957963 
-0.966274 1.028483 -1.572307 
-0.490965 1.028483 -1.572307 
-0.966274 0.039451 -1.572307 
-0.490965 0.039451 -1.572307 
-1.954582 0.034077 -0.162075 
-0.954582 0.034077 -0.162075 
-1.954582 0.773446 -0.162075 
-0.954582 0.773446 -0.162075 
-1.954582 0.773446 -1.162075 
-0.954582 0.773446 -1.162075 
-1.954582 0.034077 -1.162075 
-0.954582 0.034077 -1.162075 
0.547254 0.038382 -1.002114 
1.883268 0.038382 -1.002114 
0.547254 0.571251 -1.002114 
1.883268 0.571251 -1.002114 
0.547254 0.571251 -2.445236 
1.883268 0.571251 -2.445236 
0.547254 0.038382 -2.445236 
1.883268 0.038382 -2.445236 
0.547254 0.038382 1.764768 
1.883268 0.038382 1.764768 
0.547254 0.571251 1.764768 
1.883268 0.571251 1.764768 
0.547254 0.571251 0.321646 
1.883268 0.571251 0.321646 
0.547254 0.038382 0.321646 
1.883268 0.038382 0.321646 
-0.911588 -0.12378 2.224195 
0.49413 -0.12378 2.224195 
-0.911588 0.726295 2.224195 
0.49413 0.726295 2.224195 
-0.911588 0.726295 0.942913 
0.49413 0.726295 0.942913 
-0.911588 -0.12378 0.942913 
0.49413 -0.12378 0.942913 
-1.884837 0.056626 0.775324 
-0.95331 0.056626 0.775324 
-1.884837 0.553008 0.775324 
-0.95331 0.553008 0.775324 
-1.884837 0.553008 -0.156203 
-0.95331 0.553008 -0.156203 
-1.884837 0.056626 -0.156203 
-0.95331 0.056626 -0.156203 
-1.921771 0.034077 1.788891 
-0.921771 0.034077 1.788891 
-1.921771 0.773446 1.788891 
-0.921771 0.773446 1.788891 
-1.921771 0.773446 0.788891 
-0.921771 0.773446 0.788891 
-1.921771 0.034077 0.788891 
-0.921771 0.034077 0.788891 
0.932884 0.050335 0.282443 
2.564943 0.050335 0.282443 
0.932884 0.663688 0.282443 
2.564943 0.663688 0.282443 
0.932884 0.663688 -0.647617 
2.564943 0.663688 -0.647617 
0.932884 0.050335 -0.647617 
2.564943 0.050335 -0.647617 
0.969854 0.032503 -0.673649 
1.461937 0.032503 -0.673649 
0.969854 1.034503 -0.673649 
1.461937 1.034503 -0.673649 
0.969854 1.034503 -0.993989 
1.461937 1.034503 -0.993989 
0.969854 0.032503 -0.993989 
1.461937 0.032503 -0.993989 
3 12 13 26 
3 12 26 27 
3 10 11 8 
3 10 8 9 
3 14 15 24 
3 14 24 25 
3 6 7 1 
3 6 1 0 
3 14 25 26 
3 14 26 13 
3 24 15 12 
3 24 12 27 
3 9 8 2 
3 9 2 3 
3 5 10 9 
3 5 9 3 
3 11 10 5 
3 11 5 4 
3 11 4 2 
3 11 2 8 
3 57 58 59 
3 57 59 56 
3 60 61 58 
3 60 58 57 
3 62 61 60 
3 62 60 63 
3 62 63 56 
3 62 56 59 
3 40 41 37 
3 40 37 38 
3 42 36 37 
3 42 37 41 
3 36 42 43 
3 36 43 39 
3 39 43 40 
3 39 40 38 
3 44 45 21 
3 44 21 20 
3 46 22 21 
3 46 21 45 
3 22 46 47 
3 22 47 23 
3 23 47 44 
3 23 44 20 
3 25 24 4 
3 25 4 5 
3 25 5 3 
3 25 3 26 
3 27 26 3 
3 27 3 2 
3 2 4 24 
3 2 24 27 
3 28 14 13 
3 28 13 29 
3 29 13 12 
3 29 12 30 
3 15 31 30 
3 15 30 12 
3 15 14 28 
3 15 28 31 
3 16 17 33 
3 16 33 32 
3 18 34 33 
3 18 33 17 
3 34 18 19 
3 34 19 35 
3 35 19 16 
3 35 16 32 
3 36 18 17 
3 36 17 37 
3 37 17 16 
3 37 16 38 
3 19 39 38 
3 19 38 16 
3 19 18 36 
3 19 36 39 
3 41 40 20 
3 41 20 21 
3 22 42 41 
3 22 41 21 
3 43 42 22 
3 43 22 23 
3 43 23 20 
3 43 20 40 
3 64 65 45 
3 64 45 44 
3 66 46 45 
3 66 45 65 
3 46 66 67 
3 46 67 47 
3 47 67 64 
3 47 64 44 
3 48 28 29 
3 48 29 49 
3 50 49 29 
3 50 29 30 
3 31 51 50 
3 31 50 30 
3 28 48 51 
3 28 51 31 
3 32 33 53 
3 32 53 52 
3 34 54 53 
3 34 53 33 
3 54 34 35 
3 54 35 55 
3 55 35 32 
3 55 32 52 
3 57 56 52 
3 57 52 53 
3 59 58 49 
3 59 49 50 
3 54 60 57 
3 54 57 53 
3 61 48 49 
3 61 49 58 
3 61 62 51 
3 61 51 48 
3 63 60 54 
3 63 54 55 
3 63 55 52 
3 63 52 56 
3 51 62 59 
3 51 59 50 
3 68 69 70 
3 68 70 71 
3 72 73 70 
3 72 70 69 
3 73 72 75 
3 73 75 74 
3 74 75 68 
3 74 68 71 
3 0 1 69 
3 0 69 68 
3 71 70 65 
3 71 65 64 
3 7 72 69 
3 7 69 1 
3 73 66 65 
3 73 65 70 
3 73 74 67 
3 73 67 66 
3 7 6 75 
3 7 75 72 
3 75 6 0 
3 75 0 68 
3 67 74 71 
3 67 71 64 
3 76 77 79 
3 76 79 78 
3 78 79 81 
3 78 81 80 
3 80 81 83 
3 80 83 82 
3 82 83 77 
3 82 77 76 
3 77 83 81 
3 77 81 79 
3 82 76 78 
3 82 78 80 
3 84 85 87 
3 84 87 86 
3 86 87 89 
3 86 89 88 
3 88 89 91 
3 88 91 90 
3 90 91 85 
3 90 85 84 
3 85 91 89 
3 85 89 87 
3 90 84 86 
3 90 86 88 
3 92 93 95 
3 92 95 94 
3 94 95 97 
3 94 97 96 
3 96 97 99 
3 96 99 98 
3 98 99 93 
3 98 93 92 
3 93 99 97 
3 93 97 95 
3 98 92 94 
3 98 94 96 
3 100 101 103 
3 100 103 102 
3 102 103 105 
3 102 105 104 
3 104 105 107 
3 104 107 106 
3 106 107 101 
3 106 101 100 
3 101 107 105 
3 101 105 103 
3 106 100 102 
3 106 102 104 
3 108 109 111 
3 108 111 110 
3 110 111 113 
3 110 113 112 
3 112 113 115 
3 112 115 114 
3 114 115 109 
3 114 109 108 
3 109 115 113 
3 109 113 111 
3 114 108 110 
3 114 110 112 
3 116 117 119 
3 116 119 118 
3 118 119 121 
3 118 121 120 
3 120 121 123 
3 120 123 122 
3 122 123 117 
3 122 117 116 
3 117 123 121 
3 117 121 119 
3 122 116 118 
3 122 118 120 
3 124 125 127 
3 124 127 126 
3 126 127 129 
3 126 129 128 
3 128 129 131 
3 128 131 130 
3 130 131 125 
3 130 125 124 
3 125 131 129 
3 125 129 127 
3 130 124 126 
3 130 126 128 
3 132 133 135 
3 132 135 134 
3 134 135 137 
3 134 137 136 
3 136 137 139 
3 136 139 138 
3 138 139 133 
3 138 133 132 
3 133 139 137 
3 133 137 135 
3 138 132 134 
3 138 134 136 
3 140 141 143 
3 140 143 142 
3 142 143 145 
3 142 145 144 
3 144 145 147 
3 144 147 146 
3 146 147 141 
3 146 141 140 
3 141 147 145 
3 141 145 143 
3 146 140 142 
3 146 142 144 
3 148 149 151 
3 148 151 150 
3 150 151 153 
3 150 153 152 
3 152 153 155 
3 152 155 154 
3 154 155 149 
3 154 149 148 
3 149 155 153 
3 149 153 151 
3 154 148 150 
3 154 150 152 
